<svg width="169" height="25" viewBox="0 0 169 25" fill="none" xmlns="http://www.w3.org/2000/svg">
<path d="M0 0.282857C0 0.0942857 0.0941271 0 0.282381 0H3.45133C3.59775 0 3.69188 0.0733336 3.73371 0.220001L7.31054 12.8229V0.282857C7.31054 0.0942857 7.41513 0 7.6243 0H10.6991C10.8874 0 10.9815 0.0942857 10.9815 0.282857V21.7171C10.9815 21.9057 10.8874 22 10.6991 22H7.53017C7.42559 22 7.33146 21.9267 7.24779 21.78L3.67096 9.17714V21.7171C3.67096 21.9057 3.56637 22 3.3572 22H0.282381C0.0941271 22 0 21.9057 0 21.7171V0.282857Z" fill="#1A1025"/>
<path d="M20.1108 0C20.6129 0 21.0835 0.0942857 21.5228 0.282857C21.9829 0.471429 22.3804 0.733334 22.715 1.06857C23.0497 1.40381 23.3112 1.80191 23.4994 2.26286C23.6877 2.70286 23.7818 3.17429 23.7818 3.67714V18.3229C23.7818 18.8257 23.6877 19.3076 23.4994 19.7686C23.3112 20.2086 23.0497 20.5962 22.715 20.9314C22.3804 21.2667 21.9829 21.5286 21.5228 21.7171C21.0835 21.9057 20.6129 22 20.1108 22H16.4713C15.9693 22 15.4882 21.9057 15.028 21.7171C14.5887 21.5286 14.2018 21.2667 13.8671 20.9314C13.5324 20.5962 13.2709 20.2086 13.0827 19.7686C12.8944 19.3076 12.8003 18.8257 12.8003 18.3229V3.67714C12.8003 3.17429 12.8944 2.70286 13.0827 2.26286C13.2709 1.80191 13.5324 1.40381 13.8671 1.06857C14.2018 0.733334 14.5887 0.471429 15.028 0.282857C15.4882 0.0942857 15.9693 0 16.4713 0H20.1108ZM19.8285 18.3229C20.0167 18.3229 20.1108 18.2286 20.1108 18.04V3.96C20.1108 3.77143 20.0167 3.67714 19.8285 3.67714H16.7536C16.5654 3.67714 16.4713 3.77143 16.4713 3.96V18.04C16.4713 18.2286 16.5654 18.3229 16.7536 18.3229H19.8285Z" fill="#1A1025"/>
<path d="M41.9792 11.9114C42.0629 12.1629 42.1047 12.4667 42.1047 12.8229V18.3229C42.1047 18.8257 42.0106 19.3076 41.8223 19.7686C41.6341 20.2086 41.3726 20.5962 41.038 20.9314C40.7033 21.2667 40.3059 21.5286 39.8457 21.7171C39.4064 21.9057 38.9358 22 38.4338 22H31.4056C31.2174 22 31.1232 21.9057 31.1232 21.7171V0.282857C31.1232 0.0942857 31.2174 0 31.4056 0H37.5239C37.8795 0 38.1828 0.0419048 38.4338 0.125715C39.2286 0.335238 39.8875 0.764762 40.4104 1.41429C40.9334 2.04286 41.1948 2.79714 41.1948 3.67714V7.32286C41.1948 8.22381 40.9125 9.00952 40.3477 9.68C40.7451 9.91048 41.0902 10.2352 41.3831 10.6543C41.6759 11.0524 41.8746 11.4714 41.9792 11.9114ZM34.7942 3.67714V9.17714H37.2415C37.4297 9.17714 37.5239 9.07238 37.5239 8.86286V3.96C37.5239 3.77143 37.4297 3.67714 37.2415 3.67714H34.7942ZM34.7942 18.3229H38.1514C38.3396 18.3229 38.4338 18.2286 38.4338 18.04V13.1371C38.4338 12.9276 38.3396 12.8229 38.1514 12.8229H34.7942V18.3229Z" fill="#1A1025"/>
<path d="M51.4138 22C51.3719 22 51.3301 21.9895 51.2883 21.9686C51.2046 21.9267 51.1628 21.8533 51.1628 21.7486V18.3857H47.8056L47.5545 21.7486C47.5545 21.8743 47.5441 21.9476 47.5232 21.9686C47.5023 21.9895 47.4186 22 47.2722 22H44.1973C44.1346 22 44.0928 21.9895 44.0718 21.9686C43.9673 21.9267 43.915 21.8533 43.915 21.7486L44.9504 0.534286C44.9504 0.408572 44.9608 0.293335 44.9817 0.188573C45.0027 0.0628576 45.0759 0 45.2014 0H53.7356C53.8611 0 53.9343 0.0628576 53.9552 0.188573C53.9761 0.293335 53.9866 0.408572 53.9866 0.534286L55.022 21.7486C55.022 21.8743 54.9697 21.9476 54.8651 21.9686C54.7605 21.9895 54.6455 22 54.52 22H51.4138ZM50.3784 3.89714H48.3076L47.8056 14.7714H50.9117L50.3784 3.89714Z" fill="#1A1025"/>
<path d="M64.4781 0C64.9801 0 65.4507 0.0942857 65.89 0.282857C66.3502 0.471429 66.7476 0.733334 67.0822 1.06857C67.4169 1.40381 67.6784 1.80191 67.8666 2.26286C68.0549 2.70286 68.149 3.17429 68.149 3.67714V18.3229C68.149 18.679 68.0967 19.0457 67.9921 19.4229C67.9712 19.4857 67.9503 19.5486 67.9294 19.6114C67.9085 19.6533 67.8876 19.7057 67.8666 19.7686C67.7621 19.999 67.647 20.2086 67.5215 20.3971C67.396 20.5857 67.2496 20.7638 67.0822 20.9314C66.6848 21.2876 66.2874 21.56 65.89 21.7486C65.4925 21.9162 65.0219 22 64.4781 22H57.4499C57.2616 22 57.1675 21.9057 57.1675 21.7171V0.282857C57.1675 0.0942857 57.2616 0 57.4499 0H64.4781ZM64.4781 3.96C64.4781 3.77143 64.3839 3.67714 64.1957 3.67714H60.8385V18.3229H64.1957C64.3839 18.3229 64.4781 18.2286 64.4781 18.04V3.96Z" fill="#1A1025"/>
<path d="M82.801 0C83.303 0 83.7736 0.0942857 84.2129 0.282857C84.6731 0.471429 85.0705 0.733334 85.4052 1.06857C85.7399 1.40381 86.0013 1.80191 86.1896 2.26286C86.3778 2.70286 86.4719 3.17429 86.4719 3.67714V18.3229C86.4719 18.679 86.4197 19.0457 86.3151 19.4229C86.2942 19.4857 86.2732 19.5486 86.2523 19.6114C86.2314 19.6533 86.2105 19.7057 86.1896 19.7686C86.085 19.999 85.9699 20.2086 85.8444 20.3971C85.7189 20.5857 85.5725 20.7638 85.4052 20.9314C85.0078 21.2876 84.6103 21.56 84.2129 21.7486C83.8155 21.9162 83.3448 22 82.801 22H75.7728C75.5846 22 75.4904 21.9057 75.4904 21.7171V0.282857C75.4904 0.0942857 75.5846 0 75.7728 0H82.801ZM82.801 3.96C82.801 3.77143 82.7069 3.67714 82.5186 3.67714H79.1614V18.3229H82.5186C82.7069 18.3229 82.801 18.2286 82.801 18.04V3.96Z" fill="#1A1025"/>
<path d="M95.781 22C95.7391 22 95.6973 21.9895 95.6555 21.9686C95.5718 21.9267 95.53 21.8533 95.53 21.7486V18.3857H92.1728L91.9218 21.7486C91.9218 21.8743 91.9113 21.9476 91.8904 21.9686C91.8695 21.9895 91.7858 22 91.6394 22H88.5646C88.5018 22 88.46 21.9895 88.439 21.9686C88.3345 21.9267 88.2822 21.8533 88.2822 21.7486L89.3176 0.534286C89.3176 0.408572 89.328 0.293335 89.3489 0.188573C89.3699 0.0628576 89.4431 0 89.5686 0H98.1028C98.2283 0 98.3015 0.0628576 98.3224 0.188573C98.3433 0.293335 98.3538 0.408572 98.3538 0.534286L99.3892 21.7486C99.3892 21.8743 99.3369 21.9476 99.2323 21.9686C99.1277 21.9895 99.0127 22 98.8872 22H95.781ZM94.7456 3.89714H92.6748L92.1728 14.7714H95.279L94.7456 3.89714Z" fill="#1A1025"/>
<path d="M100.003 0.377144C99.9616 0.272382 99.9721 0.188572 100.035 0.125715C100.098 0.0419048 100.181 0 100.286 0H103.298C103.444 0 103.538 0.0628576 103.58 0.188573L105.369 6.97714L107.126 0.188573C107.168 0.0628576 107.262 0 107.408 0H110.452C110.556 0 110.629 0.0419048 110.671 0.125715C110.734 0.188572 110.744 0.272382 110.703 0.377144L107.188 11V21.7171C107.188 21.9057 107.084 22 106.875 22H103.831C103.622 22 103.518 21.9057 103.518 21.7171V11L100.003 0.377144Z" fill="#1A1025"/>
<path d="M117.976 5.28V3.96C117.976 3.77143 117.882 3.67714 117.694 3.67714H114.619C114.431 3.67714 114.337 3.77143 114.337 3.96V6.41143C114.337 7.16572 114.514 7.73143 114.87 8.10857C115.246 8.48571 115.696 8.78952 116.219 9.02C116.763 9.22952 117.349 9.43905 117.976 9.64857C118.625 9.83714 119.21 10.141 119.733 10.56C120.277 10.979 120.727 11.5762 121.082 12.3514C121.459 13.1267 121.647 14.2057 121.647 15.5886V18.3229C121.647 18.8257 121.553 19.3076 121.365 19.7686C121.176 20.2086 120.915 20.5962 120.58 20.9314C120.246 21.2667 119.848 21.5286 119.388 21.7171C118.949 21.9057 118.478 22 117.976 22H114.337C113.835 22 113.353 21.9057 112.893 21.7171C112.454 21.5076 112.067 21.2457 111.732 20.9314C111.398 20.5962 111.136 20.2086 110.948 19.7686C110.76 19.3076 110.666 18.8257 110.666 18.3229V15.9657C110.666 15.861 110.697 15.7771 110.76 15.7143C110.843 15.6514 110.937 15.641 111.042 15.6829L114.117 16.4371C114.263 16.479 114.337 16.5733 114.337 16.72V18.04C114.337 18.2286 114.431 18.3229 114.619 18.3229H117.694C117.882 18.3229 117.976 18.2286 117.976 18.04V15.5886C117.976 14.8133 117.788 14.2476 117.411 13.8914C117.056 13.5143 116.606 13.221 116.062 13.0114C115.539 12.781 114.954 12.5714 114.305 12.3829C113.678 12.1733 113.092 11.859 112.548 11.44C112.025 11.021 111.575 10.4238 111.199 9.64857C110.843 8.87333 110.666 7.79429 110.666 6.41143V3.67714C110.666 3.17429 110.76 2.70286 110.948 2.26286C111.136 1.80191 111.398 1.40381 111.732 1.06857C112.067 0.733334 112.454 0.471429 112.893 0.282857C113.353 0.0942857 113.835 0 114.337 0H117.976C118.478 0 118.949 0.0942857 119.388 0.282857C119.848 0.471429 120.246 0.733334 120.58 1.06857C120.915 1.40381 121.176 1.80191 121.365 2.26286C121.553 2.70286 121.647 3.17429 121.647 3.67714V6.03429C121.647 6.13905 121.605 6.22286 121.522 6.28572C121.459 6.34857 121.375 6.35905 121.271 6.31714L118.196 5.56286C118.049 5.52095 117.976 5.42667 117.976 5.28Z" fill="#1A1025"/>
<path d="M156.124 1.26481e-06C156.14 1.7248e-06 156.156 0.00115101 156.17 0.00343377C157.108 0.152728 153.919 5.15042 156.124 10.7457C158.363 16.4266 165.266 18.9872 164.913 19.4231C164.91 19.4263 164.907 19.4293 164.904 19.4322C164.907 19.4296 164.91 19.4265 164.913 19.4231C165.537 18.6768 158.15 0.291965 156.17 0.00343377C156.154 0.00115134 156.139 1.24258e-06 156.124 1.26481e-06Z" fill="white"/>
<path fill-rule="evenodd" clip-rule="evenodd" d="M164.913 19.4231C164.91 19.4263 164.907 19.4293 164.904 19.4322C164.907 19.4296 164.91 19.4265 164.913 19.4231Z" fill="#FF1CA0"/>
<path d="M136.647 22L157.84 22C160.529 22 162.993 21.0349 164.904 19.4322C164.907 19.4293 164.91 19.4263 164.913 19.4231C165.266 18.9872 158.363 16.4266 156.124 10.7457C153.919 5.15042 157.108 0.152728 156.17 0.00343377C156.154 0.00115134 156.139 1.24258e-06 156.124 1.26481e-06L136.647 1.26481e-06C130.572 1.26481e-06 125.647 4.92487 125.647 11C125.647 17.0751 130.572 22 136.647 22Z" fill="#FF1CA0"/>
<path d="M138.447 7.38292L135.787 15.0789H133.409L130.748 7.38292H132.978L134.558 12.8893H134.637L136.213 7.38292H138.447Z" fill="white"/>
<path d="M139.527 16.9708V7.38292H141.608V8.67561H141.702C141.795 8.46851 141.929 8.25807 142.104 8.0443C142.282 7.82718 142.513 7.6468 142.797 7.50317C143.085 7.3562 143.441 7.28271 143.868 7.28271C144.422 7.28271 144.934 7.42969 145.403 7.72363C145.872 8.01423 146.247 8.45348 146.528 9.04136C146.809 9.62591 146.949 10.3591 146.949 11.2409C146.949 12.0994 146.812 12.8242 146.538 13.4154C146.267 14.0033 145.897 14.4493 145.428 14.7532C144.963 15.0538 144.441 15.2042 143.863 15.2042C143.453 15.2042 143.105 15.1357 142.817 14.9987C142.533 14.8618 142.3 14.6898 142.119 14.4827C141.937 14.2722 141.798 14.0601 141.702 13.8463H141.638V16.9708H139.527ZM141.593 11.2309C141.593 11.6885 141.656 12.0877 141.782 12.4284C141.907 12.7691 142.089 13.0347 142.327 13.225C142.565 13.4121 142.854 13.5056 143.194 13.5056C143.537 13.5056 143.828 13.4104 144.066 13.22C144.304 13.0263 144.484 12.7591 144.606 12.4184C144.731 12.0743 144.794 11.6785 144.794 11.2309C144.794 10.7867 144.733 10.3958 144.611 10.0585C144.489 9.72111 144.309 9.45723 144.071 9.26683C143.833 9.07644 143.541 8.98124 143.194 8.98124C142.85 8.98124 142.56 9.0731 142.322 9.25681C142.087 9.44053 141.907 9.70107 141.782 10.0384C141.656 10.3758 141.593 10.7733 141.593 11.2309Z" fill="white"/>
<path d="M150.467 10.6297V15.0789H148.356V7.38292H150.368V8.74074H150.457C150.625 8.29314 150.908 7.93908 151.304 7.67854C151.701 7.41466 152.181 7.28271 152.746 7.28271C153.274 7.28271 153.735 7.39962 154.128 7.63344C154.521 7.86726 154.827 8.20129 155.045 8.63552C155.263 9.06642 155.372 9.58082 155.372 10.1787V15.0789H153.261V10.5595C153.265 10.0885 153.146 9.72111 152.905 9.45723C152.663 9.19001 152.331 9.0564 151.909 9.0564C151.625 9.0564 151.374 9.11819 151.156 9.24178C150.941 9.36537 150.772 9.54574 150.65 9.7829C150.531 10.0167 150.47 10.299 150.467 10.6297Z" fill="white"/>
<g filter="url(#filter0_d_206_9253)">
<path d="M156.124 1.26481e-06C157.207 3.18076e-05 153.885 5.06486 156.124 10.7457C158.363 16.4266 165.266 18.9872 164.913 19.4231C165.542 18.6709 158.033 -1.56823e-06 156.124 1.26481e-06Z" fill="#EBEBEB"/>
</g>
<defs>
<filter id="filter0_d_206_9253" x="152.742" y="0" width="14.7966" height="24.5998" filterUnits="userSpaceOnUse" color-interpolation-filters="sRGB">
<feFlood flood-opacity="0" result="BackgroundImageFix"/>
<feColorMatrix in="SourceAlpha" type="matrix" values="0 0 0 0 0 0 0 0 0 0 0 0 0 0 0 0 0 0 127 0" result="hardAlpha"/>
<feOffset dy="2.58824"/>
<feGaussianBlur stdDeviation="1.29412"/>
<feComposite in2="hardAlpha" operator="out"/>
<feColorMatrix type="matrix" values="0 0 0 0 0 0 0 0 0 0 0 0 0 0 0 0 0 0 0.25 0"/>
<feBlend mode="normal" in2="BackgroundImageFix" result="effect1_dropShadow_206_9253"/>
<feBlend mode="normal" in="SourceGraphic" in2="effect1_dropShadow_206_9253" result="shape"/>
</filter>
</defs>
</svg>
