<svg width="83" height="64" viewBox="0 0 83 64" fill="none" xmlns="http://www.w3.org/2000/svg">
<path fill-rule="evenodd" clip-rule="evenodd" d="M67.1147 0.0692723C67.2575 0.0692723 67.3409 0.141703 67.3647 0.286556C67.3885 0.407261 67.4003 0.540088 67.4003 0.684933L68.5781 25.1286C68.5781 25.2734 68.5187 25.3579 68.3997 25.3821C68.2808 25.4062 68.1498 25.4184 68.007 25.4184H64.4735C64.4259 25.4184 64.3783 25.4062 64.3307 25.3821C64.2356 25.3338 64.1881 25.2493 64.1881 25.1286V21.2538H60.369L60.0834 25.1286C60.0834 25.2734 60.0714 25.3579 60.0476 25.3821C60.0239 25.4062 59.9288 25.4184 59.7622 25.4184H56.2643C56.1929 25.4184 56.1453 25.4062 56.1215 25.3821C56.0026 25.3338 55.9431 25.2493 55.9431 25.1286L57.121 0.684933C57.121 0.540086 57.1328 0.407263 57.1566 0.286556C57.1804 0.141703 57.2638 0.0692723 57.4065 0.0692723H67.1147ZM60.369 17.0894H63.9025L63.2956 4.55971H60.9401L60.369 17.0894Z" fill="#1A1025"/>
<path fill-rule="evenodd" clip-rule="evenodd" d="M78.824 0.0692723C79.3951 0.0692756 79.9305 0.177854 80.4302 0.395128C80.9537 0.6124 81.4058 0.9142 81.7865 1.30045C82.1672 1.68671 82.4646 2.14544 82.6788 2.67654C82.8929 3.18352 82.9999 3.72683 82.9999 4.30623V21.1814C82.9999 21.5918 82.9405 22.0144 82.8215 22.4489C82.7977 22.5213 82.7739 22.5938 82.7501 22.6662C82.7264 22.7145 82.7025 22.7748 82.6788 22.8472C82.5598 23.1127 82.4289 23.3541 82.2862 23.5714C82.1434 23.7887 81.9768 23.9939 81.7865 24.1871C81.3344 24.5975 80.8823 24.9113 80.4302 25.1286C79.9781 25.3217 79.4427 25.4184 78.824 25.4184H70.829C70.6149 25.4184 70.5077 25.3097 70.5077 25.0924V0.395128C70.5077 0.177891 70.6149 0.0692723 70.829 0.0692723H78.824ZM74.6838 21.1814H78.5027C78.7168 21.1814 78.824 21.0728 78.824 20.8556V4.63209C78.824 4.41482 78.7169 4.30623 78.5027 4.30623H74.6838V21.1814Z" fill="#1A1025"/>
<path fill-rule="evenodd" clip-rule="evenodd" d="M48.092 0.0692723C48.4965 0.0692766 48.8416 0.117611 49.1271 0.214175C50.0312 0.455598 50.7808 0.950457 51.3756 1.69883C51.9705 2.42309 52.2679 3.29227 52.2679 4.30623V8.50687C52.2679 9.54497 51.9467 10.4503 51.3042 11.2228C51.7563 11.4884 52.149 11.8626 52.4821 12.3455C52.8152 12.8041 53.0412 13.287 53.1602 13.7939C53.2554 14.0836 53.303 14.4337 53.303 14.8441V21.1814C53.303 21.7608 53.1959 22.3161 52.9818 22.8472C52.7677 23.3541 52.4702 23.8008 52.0895 24.1871C51.7088 24.5733 51.2566 24.8751 50.7331 25.0924C50.2335 25.3097 49.6981 25.4184 49.1271 25.4184H44.5111C43.2409 22.5245 41.9354 19.7986 40.8108 17.826V0.395128C40.8108 0.177907 40.9178 0.0692887 41.1319 0.0692723H48.092ZM44.9868 21.1814H48.8058C49.0199 21.1814 49.1271 21.0728 49.1271 20.8556V15.2063C49.1271 14.9649 49.0199 14.8441 48.8058 14.8441H44.9868V21.1814ZM44.9868 10.6435H47.7707C47.9848 10.6435 48.092 10.5227 48.092 10.2813V4.63209C48.092 4.41482 47.9848 4.30623 47.7707 4.30623H44.9868V10.6435Z" fill="#1A1025"/>
<path d="M46.9817 33.9045C46.9185 33.7587 46.9343 33.6421 47.0291 33.5546C47.1238 33.438 47.2502 33.3796 47.4081 33.3796H51.957C52.1782 33.3796 52.3203 33.4671 52.3835 33.6421L55.0844 43.0907L57.7379 33.6421C57.8011 33.4671 57.9432 33.3796 58.1644 33.3796H62.7606C62.9186 33.3796 63.0292 33.438 63.0923 33.5546C63.1871 33.6421 63.2029 33.7587 63.1397 33.9045L57.8327 48.6898V63.6063C57.8327 63.8688 57.6747 64 57.3588 64H52.7626C52.4467 64 52.2887 63.8688 52.2887 63.6063V48.6898L46.9817 33.9045Z" fill="#1A1025"/>
<path d="M77.456 40.7285V38.8913C77.456 38.6288 77.3139 38.4976 77.0296 38.4976H72.3859C72.1016 38.4976 71.9595 38.6288 71.9595 38.8913V42.3033C71.9595 43.3531 72.228 44.1405 72.765 44.6654C73.3336 45.1903 74.0128 45.6132 74.8025 45.934C75.6239 46.2256 76.5084 46.5172 77.456 46.8088C78.4353 47.0713 79.3198 47.4942 80.1096 48.0774C80.9309 48.6607 81.6101 49.4918 82.1471 50.5708C82.7157 51.6498 83 53.1516 83 55.0764V58.882C83 59.5819 82.8578 60.2526 82.5735 60.8942C82.2892 61.5066 81.8944 62.0461 81.3889 62.5127C80.8835 62.9793 80.2833 63.3439 79.5883 63.6063C78.925 63.8688 78.2142 64 77.456 64H71.9595C71.2013 64 70.4748 63.8688 69.7798 63.6063C69.1164 63.3147 68.532 62.9502 68.0266 62.5127C67.5212 62.0461 67.1263 61.5066 66.842 60.8942C66.5577 60.2526 66.4155 59.5819 66.4155 58.882V55.6013C66.4155 55.4555 66.4629 55.3388 66.5577 55.2513C66.684 55.1638 66.8262 55.1493 66.9841 55.2076L71.6278 56.2574C71.8489 56.3158 71.9595 56.447 71.9595 56.6511V58.4883C71.9595 58.7508 72.1016 58.882 72.3859 58.882H77.0296C77.3139 58.882 77.456 58.7508 77.456 58.4883V55.0764C77.456 53.9974 77.1717 53.21 76.6031 52.7142C76.0661 52.1893 75.3869 51.781 74.5656 51.4894C73.7759 51.1686 72.8914 50.877 71.9121 50.6145C70.9644 50.3229 70.0799 49.8855 69.2586 49.3022C68.4688 48.719 67.7897 47.8879 67.2211 46.8088C66.684 45.7298 66.4155 44.228 66.4155 42.3033V38.4976C66.4155 37.7977 66.5577 37.1416 66.842 36.5292C67.1263 35.8876 67.5212 35.3335 68.0266 34.8669C68.532 34.4003 69.1164 34.0358 69.7798 33.7733C70.4748 33.5109 71.2013 33.3796 71.9595 33.3796H77.456C78.2142 33.3796 78.925 33.5109 79.5883 33.7733C80.2833 34.0358 80.8835 34.4003 81.3889 34.8669C81.8944 35.3335 82.2892 35.8876 82.5735 36.5292C82.8578 37.1416 83 37.7977 83 38.4976V41.7784C83 41.9242 82.9368 42.0408 82.8105 42.1283C82.7157 42.2158 82.5893 42.2304 82.4314 42.1721L77.7877 41.1222C77.5666 41.0639 77.456 40.9327 77.456 40.7285Z" fill="#1A1025"/>
<path d="M19.4658 45.2484C20.2826 45.2484 21.0483 45.3283 21.763 45.4882C22.5117 45.648 23.1583 45.87 23.7028 46.1542C24.2473 46.4383 24.6727 46.7758 24.979 47.1665C25.2853 47.5395 25.4385 47.9391 25.4385 48.3654V60.7801C25.4385 61.082 25.3534 61.3928 25.1832 61.7125C25.1492 61.7658 25.1152 61.8191 25.0811 61.8724C25.0471 61.9079 25.0131 61.9523 24.979 62.0056C24.8089 62.2009 24.6217 62.3785 24.4175 62.5384C24.2133 62.6982 23.9751 62.8492 23.7028 62.9913C23.0562 63.2932 22.4096 63.5241 21.763 63.684C21.1164 63.826 20.3506 63.8971 19.4658 63.8971H8.03087C7.72458 63.8971 7.57143 63.8172 7.57143 63.6573V45.4882C7.57143 45.3283 7.72458 45.2484 8.03087 45.2484H19.4658ZM19.4658 48.6052C19.4658 48.4453 19.3126 48.3654 19.0063 48.3654H13.5441V60.7801H19.0063C19.3126 60.7801 19.4658 60.7002 19.4658 60.5403V48.6052Z" fill="#1A1025"/>
<path d="M41.4151 63.8971C41.3471 63.8971 41.279 63.8882 41.2109 63.8704C41.0748 63.8349 41.0067 63.7728 41.0067 63.684V60.8334H35.5445L35.1361 63.684C35.1361 63.7905 35.1191 63.8527 35.0851 63.8704C35.0511 63.8882 34.9149 63.8971 34.6767 63.8971H29.6739C29.5718 63.8971 29.5038 63.8882 29.4697 63.8704C29.2996 63.8349 29.2145 63.7728 29.2145 63.684L30.8991 45.7013C30.8991 45.5947 30.9161 45.497 30.9501 45.4082C30.9842 45.3017 31.1033 45.2484 31.3075 45.2484H45.1927C45.3969 45.2484 45.516 45.3017 45.5501 45.4082C45.5841 45.497 45.6011 45.5947 45.6011 45.7013L47.2857 63.684C47.2857 63.7905 47.2006 63.8527 47.0305 63.8704C46.8603 63.8882 46.6731 63.8971 46.4689 63.8971H41.4151ZM39.7305 48.5519H36.3613L35.5445 57.7696H40.5984L39.7305 48.5519Z" fill="#1A1025"/>
<path d="M7.57143 0.180291C7.57143 0.0600971 7.66869 0 7.86319 0H11.1374C11.2886 0 11.3859 0.0467424 11.4291 0.140227L15.1247 8.17321V0.180291C15.1247 0.0600971 15.2328 0 15.4489 0H18.6258C18.8203 0 18.9175 0.0600971 18.9175 0.180291V13.8424C18.9175 13.9626 18.8203 14.0227 18.6258 14.0227H15.3516C15.2436 14.0227 15.1463 13.9759 15.0599 13.8824L11.3643 5.84945V13.8424C11.3643 13.9626 11.2562 14.0227 11.0401 14.0227H7.86319C7.66869 14.0227 7.57143 13.9626 7.57143 13.8424V0.180291Z" fill="#1A1025"/>
<path d="M28.35 0C28.8687 0 29.355 0.0600971 29.8088 0.180291C30.2843 0.300486 30.6949 0.467422 31.0407 0.681101C31.3865 0.89478 31.6566 1.14852 31.8511 1.44233C32.0456 1.72278 32.1429 2.02327 32.1429 2.34379V11.6789C32.1429 11.9994 32.0456 12.3066 31.8511 12.6004C31.6566 12.8808 31.3865 13.1279 31.0407 13.3416C30.6949 13.5552 30.2843 13.7222 29.8088 13.8424C29.355 13.9626 28.8687 14.0227 28.35 14.0227H24.5896C24.0709 14.0227 23.5738 13.9626 23.0984 13.8424C22.6445 13.7222 22.2447 13.5552 21.8989 13.3416C21.5532 13.1279 21.283 12.8808 21.0885 12.6004C20.894 12.3066 20.7968 11.9994 20.7968 11.6789V2.34379C20.7968 2.02327 20.894 1.72278 21.0885 1.44233C21.283 1.14852 21.5532 0.89478 21.8989 0.681101C22.2447 0.467422 22.6445 0.300486 23.0984 0.180291C23.5738 0.0600971 24.0709 0 24.5896 0H28.35ZM28.0583 11.6789C28.2528 11.6789 28.35 11.6188 28.35 11.4986V2.52408C28.35 2.40389 28.2528 2.34379 28.0583 2.34379H24.8814C24.6868 2.34379 24.5896 2.40389 24.5896 2.52408V11.4986C24.5896 11.6188 24.6868 11.6789 24.8814 11.6789H28.0583Z" fill="#1A1025"/>
<path d="M36.6918 16.246C36.7114 16.246 36.7299 16.2474 36.7471 16.2502C37.8768 16.4321 34.0366 22.5207 36.6918 29.3375C39.3876 36.2584 47.6977 39.378 47.2728 39.9091C47.2697 39.913 47.2661 39.9166 47.2619 39.9202C47.2658 39.9169 47.2694 39.9133 47.2728 39.9091C48.0247 38.9999 39.1311 16.6017 36.7471 16.2502C36.7283 16.2474 36.7098 16.246 36.6918 16.246Z" fill="white"/>
<path fill-rule="evenodd" clip-rule="evenodd" d="M47.2728 39.9091C47.2697 39.913 47.2661 39.9166 47.2619 39.9202C47.2658 39.9169 47.2694 39.9133 47.2728 39.9091Z" fill="#FF1CA0"/>
<path d="M13.2431 43.0485H38.7572C41.9949 43.0485 44.9612 41.8728 47.2619 39.9202C47.2661 39.9166 47.2697 39.913 47.2728 39.9091C47.6977 39.378 39.3876 36.2584 36.6918 29.3375C34.0366 22.5207 37.8768 16.4321 36.7471 16.2502C36.7283 16.2474 36.7098 16.246 36.6918 16.246H13.2431C5.92912 16.246 0 22.2459 0 29.6472C0 37.0485 5.92912 43.0485 13.2431 43.0485Z" fill="#FF1CA0"/>
<path d="M15.4108 25.2409L12.2077 34.6169H9.34461L6.14152 25.2409H8.82568L10.7284 31.9494H10.8239L12.7207 25.2409H15.4108Z" fill="white"/>
<path d="M16.7111 36.9218V25.2409H19.2163V26.8158H19.3297C19.441 26.5635 19.6021 26.3071 19.8128 26.0467C20.0276 25.7822 20.3059 25.5624 20.6479 25.3874C20.9939 25.2084 21.4233 25.1189 21.9363 25.1189C22.6043 25.1189 23.2207 25.2979 23.7854 25.656C24.35 26.0101 24.8014 26.5452 25.1394 27.2614C25.4774 27.9736 25.6464 28.8668 25.6464 29.9411C25.6464 30.987 25.4814 31.87 25.1513 32.5903C24.8252 33.3065 24.3799 33.8498 23.8152 34.2201C23.2545 34.5864 22.6262 34.7695 21.9303 34.7695C21.4372 34.7695 21.0177 34.6861 20.6718 34.5192C20.3298 34.3524 20.0494 34.1428 19.8307 33.8905C19.612 33.6341 19.445 33.3757 19.3297 33.1153H19.2521V36.9218H16.7111ZM19.1985 29.9289C19.1985 30.4864 19.274 30.9727 19.4251 31.3878C19.5762 31.8029 19.7949 32.1264 20.0812 32.3584C20.3676 32.5863 20.7155 32.7002 21.1251 32.7002C21.5386 32.7002 21.8886 32.5842 22.1749 32.3523C22.4612 32.1162 22.6779 31.7907 22.825 31.3756C22.9762 30.9564 23.0517 30.4742 23.0517 29.9289C23.0517 29.3877 22.9781 28.9116 22.831 28.5006C22.6839 28.0895 22.4672 27.7681 22.1808 27.5361C21.8945 27.3041 21.5426 27.1882 21.1251 27.1882C20.7115 27.1882 20.3616 27.3001 20.0753 27.5239C19.7929 27.7477 19.5762 28.0651 19.4251 28.4761C19.274 28.8871 19.1985 29.3714 19.1985 29.9289Z" fill="white"/>
<path d="M29.8814 29.1964V34.6169H27.3404V25.2409H29.7621V26.8952H29.8695C30.0723 26.3499 30.4123 25.9185 30.8894 25.6011C31.3666 25.2796 31.9452 25.1189 32.6252 25.1189C33.2614 25.1189 33.8162 25.2613 34.2894 25.5461C34.7626 25.831 35.1304 26.2379 35.3929 26.767C35.6553 27.2919 35.7865 27.9186 35.7865 28.6471V34.6169H33.2455V29.111C33.2495 28.5372 33.1064 28.0895 32.8161 27.7681C32.5258 27.4425 32.1261 27.2797 31.6172 27.2797C31.2752 27.2797 30.973 27.355 30.7105 27.5056C30.452 27.6561 30.2492 27.8759 30.1021 28.1648C29.9589 28.4497 29.8854 28.7936 29.8814 29.1964Z" fill="white"/>
<path d="M36.6918 16.246C37.9957 16.246 33.996 22.4165 36.6918 29.3375C39.3876 36.2584 47.6977 39.378 47.2728 39.9091C47.2697 39.913 47.2661 39.9166 47.2619 39.9202C47.2658 39.9169 47.2694 39.9133 47.2728 39.9091C48.0307 38.9927 38.9898 16.246 36.6918 16.246Z" fill="#E9E9E9"/>
<path fill-rule="evenodd" clip-rule="evenodd" d="M47.2728 39.9091C47.2697 39.913 47.2661 39.9166 47.2619 39.9202C47.2658 39.9169 47.2694 39.9133 47.2728 39.9091Z" fill="#FF1CA0"/>
</svg>
